<svg xmlns="http://www.w3.org/2000/svg" xmlns:xlink="http://www.w3.org/1999/xlink" viewBox="0 0 685.8 207"><defs><style>.cls-1{fill:#fff;}.cls-2{isolation:isolate;}.cls-3{fill:url(#radial-gradient);}</style><radialGradient id="radial-gradient" cx="218.03" cy="27.17" r="109.45" gradientUnits="userSpaceOnUse"><stop offset="0.1" stop-color="#08dc8a"/><stop offset="0.26" stop-color="#07d397"/><stop offset="0.54" stop-color="#04bcb8"/><stop offset="0.89" stop-color="#009be7"/></radialGradient></defs><title>white</title><g id="Layer_2" data-name="Layer 2"><g id="Layer_1-2" data-name="Layer 1"><polygon class="cls-1" points="49.3 57.5 16 57.5 16 21.8 0 21.8 0 108.3 16 108.3 16 72.3 49.3 72.3 49.3 108.3 65.4 108.3 65.4 21.8 49.3 21.8 49.3 57.5"/><path class="cls-1" d="M313.8,71.2c4.6-5,7.2-12.2,7.2-20.2,0-8.2-2.5-15.2-7.1-20.3-3.5-4-10.2-8.8-21.9-8.8H265.8v86.4h16V80.1h7.3l21,28.2h18.5l-23.1-31A23.14,23.14,0,0,0,313.8,71.2ZM306.2,51c0,4.5-1.1,8-3.3,10.4-2.3,2.7-6,4-10.9,4H281.8V36.6H292c5,0,8.6,1.3,10.9,3.9C305,42.9,306.2,46.4,306.2,51Z"/><rect class="cls-1" x="363.9" y="21.8" width="16" height="86.4"/><polygon class="cls-1" points="426.6 21.8 426.6 37.9 458.9 37.9 419 108.3 487.6 108.3 487.6 92.2 447.6 92.2 487.6 21.8 426.6 21.8"/><polygon class="cls-1" points="525.7 108.3 578.7 108.3 578.7 93.5 541.7 93.5 541.7 70.6 572.2 70.6 572.2 55.8 541.7 55.8 541.7 36.5 578.7 36.5 578.7 21.8 525.7 21.8 525.7 108.3"/><polygon class="cls-1" points="669.6 76 629 21.8 617.2 21.8 617.2 108.3 633.3 108.3 633.3 54 674.1 108.3 685.8 108.3 685.8 21.8 669.6 21.8 669.6 76"/><path class="cls-1" d="M181.3,63.3a76.07,76.07,0,0,1,16.6,1.8h0a32.7,32.7,0,1,0-65.1,4.4h0a78,78,0,0,0-12.3,11.4,47.93,47.93,0,0,1-2.7-15.7,47.27,47.27,0,0,1,47.3-47.3A46.18,46.18,0,0,1,186.4,23l16.5-10.7A63.24,63.24,0,0,0,165.2,0a65.08,65.08,0,0,0-52.4,103.7,76.71,76.71,0,0,1,11.1-15.3s6.4-6.7,11.3-10.1A77.73,77.73,0,0,1,181.3,63.3Z"/><g class="cls-2"><path class="cls-1" d="M109.9,170.5h5v16.8c0,4.5,2.5,7.4,7.2,7.4s7.1-2.9,7.1-7.4V170.5h5v16.9c0,7-4,11.6-12.1,11.6S110,194.3,110,187.4V170.5Z"/><path class="cls-1" d="M156.7,185.9c0-3.2-1.6-4.2-4.1-4.2a6.54,6.54,0,0,0-5.2,2.7v14.2H143V178.3h4.4v2.8a9.59,9.59,0,0,1,7.1-3.3c4.4,0,6.6,2.4,6.6,6.5v14.3h-4.4V185.9Z"/><path class="cls-1" d="M169.8,170.5h4.4v10.6a8.2,8.2,0,0,1,6.5-3.3c5.2,0,9,4.1,9,10.7s-3.8,10.6-9,10.6a8.19,8.19,0,0,1-6.5-3.3v2.8h-4.4Zm9.6,24.7c3.5,0,5.8-2.8,5.8-6.7s-2.2-6.8-5.8-6.8a6.65,6.65,0,0,0-5.2,2.8v8A6.72,6.72,0,0,0,179.4,195.2Z"/><path class="cls-1" d="M195.9,188.4c0-5.8,4-10.6,10.4-10.6s10.5,4.8,10.5,10.6-4,10.7-10.5,10.7S195.9,194.2,195.9,188.4Zm16.3,0c0-3.6-2.1-6.7-5.9-6.7s-5.8,3.2-5.8,6.7,2.1,6.8,5.8,6.8S212.2,192,212.2,188.4Z"/><path class="cls-1" d="M238,195.9a10,10,0,0,1-7.2,3.2c-4.4,0-6.5-2.3-6.5-6.4V178.3h4.4V191c0,3.2,1.6,4.1,4.1,4.1a6.92,6.92,0,0,0,5.2-2.6V178.2h4.4v20.3H238Z"/><path class="cls-1" d="M264.8,185.9c0-3.2-1.6-4.2-4.1-4.2a6.54,6.54,0,0,0-5.2,2.7v14.2h-4.4V178.3h4.4v2.8a9.59,9.59,0,0,1,7.1-3.3c4.4,0,6.6,2.4,6.6,6.5v14.3h-4.4Z"/><path class="cls-1" d="M292.2,195.8a8.34,8.34,0,0,1-6.5,3.3c-5.2,0-9-4-9-10.6s3.8-10.7,9-10.7a8.2,8.2,0,0,1,6.5,3.3V170.5h4.4v28h-4.4Zm0-11.4a6.76,6.76,0,0,0-5.3-2.7c-3.5,0-5.7,2.8-5.7,6.8s2.2,6.7,5.7,6.7a6.92,6.92,0,0,0,5.3-2.7Z"/><path class="cls-1" d="M314.3,177.8c6.1,0,10,4.7,10,11.1V190H308.6c.3,3.1,2.6,5.6,6.5,5.6a8.91,8.91,0,0,0,5.8-2.2l2,2.9a11.9,11.9,0,0,1-8.2,2.9c-6.1,0-10.6-4.2-10.6-10.7C304,182.5,308.3,177.8,314.3,177.8Zm-5.7,9H320a5.43,5.43,0,0,0-5.7-5.4A5.64,5.64,0,0,0,308.6,186.8Z"/><path class="cls-1" d="M346,195.8a8.34,8.34,0,0,1-6.5,3.3c-5.2,0-9-4-9-10.6s3.8-10.7,9-10.7a8.2,8.2,0,0,1,6.5,3.3V170.5h4.4v28H346Zm0-11.4a6.76,6.76,0,0,0-5.3-2.7c-3.5,0-5.7,2.8-5.7,6.8s2.2,6.7,5.7,6.7a6.92,6.92,0,0,0,5.3-2.7Z"/><path class="cls-1" d="M372.9,170.5h4.4v10.6a8.2,8.2,0,0,1,6.5-3.3c5.2,0,9,4.1,9,10.7s-3.8,10.6-9,10.6a8.19,8.19,0,0,1-6.5-3.3v2.8h-4.4Zm9.6,24.7c3.5,0,5.8-2.8,5.8-6.7s-2.2-6.8-5.8-6.8a6.65,6.65,0,0,0-5.2,2.8v8A6.56,6.56,0,0,0,382.5,195.2Z"/><path class="cls-1" d="M401.8,202.9a2.71,2.71,0,0,0,2.9-1.8l1-2.3-8.3-20.6h4.7l5.9,15.2,5.9-15.2h4.8l-9.8,24c-1.4,3.4-3.8,4.5-7,4.6a11.34,11.34,0,0,1-2.5-.3l.7-4A3.06,3.06,0,0,0,401.8,202.9Z"/><path class="cls-1" d="M452.5,195.8a8.34,8.34,0,0,1-6.5,3.3c-5.2,0-9-4-9-10.6s3.8-10.7,9-10.7a8.2,8.2,0,0,1,6.5,3.3V170.5h4.4v28h-4.4Zm0-11.4a6.76,6.76,0,0,0-5.3-2.7c-3.5,0-5.7,2.8-5.7,6.8s2.2,6.7,5.7,6.7a6.92,6.92,0,0,0,5.3-2.7Z"/><path class="cls-1" d="M474.6,177.8c6.1,0,10,4.7,10,11.1V190H469c.3,3.1,2.6,5.6,6.5,5.6a8.91,8.91,0,0,0,5.8-2.2l2,2.9a11.9,11.9,0,0,1-8.2,2.9c-6.1,0-10.6-4.2-10.6-10.7A10,10,0,0,1,474.6,177.8Zm-5.7,9h11.4a5.43,5.43,0,0,0-5.7-5.4A5.57,5.57,0,0,0,468.9,186.8Z"/><path class="cls-1" d="M492.2,192.7a10.22,10.22,0,0,0,6.9,2.9c2.7,0,4-1,4-2.5,0-1.8-2.1-2.4-4.6-2.9-3.5-.8-7.7-1.7-7.7-6.2,0-3.3,2.9-6.2,8-6.2a11.33,11.33,0,0,1,7.9,2.9l-1.8,3.1a8.1,8.1,0,0,0-6-2.4c-2.3,0-3.8.8-3.8,2.3s2,2.1,4.4,2.6c3.5.8,7.9,1.8,7.9,6.6,0,3.6-3,6.3-8.5,6.3a12.27,12.27,0,0,1-8.7-3.2Z"/><path class="cls-1" d="M514.3,172.2a2.75,2.75,0,0,1,2.7-2.7,2.7,2.7,0,1,1-2.7,2.7Zm.5,6.1h4.4v20.3h-4.4Z"/><path class="cls-1" d="M529.7,200.6c1.6,1.9,3.7,2.6,6.4,2.6,2.9,0,6-1.3,6-5.5v-2.4a8.44,8.44,0,0,1-6.5,3.4c-5.2,0-9-3.7-9-10.4s3.8-10.4,9-10.4a8.05,8.05,0,0,1,6.5,3.3v-2.8h4.4v19.3c0,7.3-5.4,9.3-10.4,9.3a11.85,11.85,0,0,1-8.5-3Zm12.5-16.2a6.72,6.72,0,0,0-5.2-2.7c-3.5,0-5.7,2.6-5.7,6.5s2.2,6.5,5.7,6.5a6.56,6.56,0,0,0,5.2-2.7Z"/><path class="cls-1" d="M569,185.9c0-3.2-1.6-4.2-4.1-4.2a6.54,6.54,0,0,0-5.2,2.7v14.2h-4.4V178.3h4.4v2.8a9.59,9.59,0,0,1,7.1-3.3c4.4,0,6.6,2.4,6.6,6.5v14.3H569Z"/></g><polygon class="cls-1" points="580.9 171.5 578.9 171.5 578.9 170.2 584.4 170.2 584.4 171.5 582.4 171.5 582.4 177.1 580.9 177.1 580.9 171.5"/><polygon class="cls-1" points="591.3 172.2 589.3 177.1 588.7 177.1 586.8 172.2 586.8 177.1 585.3 177.1 585.3 170.2 587.4 170.2 589 174.5 590.7 170.2 592.7 170.2 592.7 177.1 591.3 177.1 591.3 172.2"/><path class="cls-3" d="M218,27.24h0L207.38,43.73a47.34,47.34,0,0,1-63.59,63.63L127.31,118A65,65,0,0,0,218,27.24Z"/><path class="cls-3" d="M165.14,97.68A32.67,32.67,0,0,0,197.26,71,74.73,74.73,0,0,0,138,83.26,32.64,32.64,0,0,0,165.14,97.68Z"/></g></g></svg>